<svg xmlns="http://www.w3.org/2000/svg" xmlns:xlink="http://www.w3.org/1999/xlink" width="22" height="22" version="1.1"><defs><linearGradient id="a"><stop offset="0"/><stop offset="1" stop-opacity="0"/></linearGradient><radialGradient id="e" cx="4.02" cy="5.593" r="10.273" gradientTransform="matrix(-.025178 1.1968 -1.635 -.032772 12.998 2.8506)" gradientUnits="userSpaceOnUse" stop-color="#fff"><stop offset="0"/><stop offset=".848"/><stop offset="1" stop-opacity="0"/></radialGradient><radialGradient id="d" cx="8.233" cy="8.478" r="9.999" gradientTransform="matrix(1.2637 1.6455e-8 -1.114e-8 .85557 -2.171 2.48)" gradientUnits="userSpaceOnUse"><stop offset="0" stop-color="#aacb7d"/><stop offset="1" stop-color="#709937"/></radialGradient><linearGradient id="j" x1="15.669" x2="3.077" y1="16.979" y2="4.252" gradientTransform="matrix(.9052 0 0 .86808 -.23 2.309)" gradientUnits="userSpaceOnUse"><stop offset="0" stop-color="#51751e"/><stop offset="1" stop-color="#51751e"/></linearGradient><linearGradient id="i" x1="-28.531" x2="-28.531" y1="17.956" y2="37.503" gradientTransform="matrix(.91016 0 0 .89855 31.368 -12.801)" gradientUnits="userSpaceOnUse"><stop offset="0" stop-color="#fff"/><stop offset=".91" stop-color="#cdcdcd"/><stop offset="1" stop-color="#a1a1a1"/></linearGradient><linearGradient id="h" x1="9.876" x2="9.876" y1="2.602" y2="23.062" gradientTransform="matrix(.91016 0 0 .89855 .078 .229)" gradientUnits="userSpaceOnUse"><stop offset="0" stop-color="#c1c1c1"/><stop offset="1" stop-color="#909090"/></linearGradient><radialGradient id="c" cx="605.71" cy="486.65" r="117.14" gradientTransform="matrix(-.029848 0 0 .013736 21.749 13.628)" gradientUnits="userSpaceOnUse" xlink:href="#a"/><radialGradient id="b" cx="605.71" cy="486.65" r="117.14" gradientTransform="matrix(.029848 0 0 .013736 .18513 13.628)" gradientUnits="userSpaceOnUse" xlink:href="#a"/><linearGradient id="g" x1="302.86" x2="302.86" y1="366.65" y2="609.51" gradientTransform="matrix(.029848 0 0 .013736 .17868 13.628)" gradientUnits="userSpaceOnUse"><stop offset="0" stop-opacity="0"/><stop offset=".5"/><stop offset="1" stop-opacity="0"/></linearGradient><linearGradient id="f" x1="18.031" x2="20.055" y1="16.408" y2="24.628" gradientTransform="matrix(.40265 0 0 .35207 2.8582 4.1374)" gradientUnits="userSpaceOnUse" stop-color="#fff"><stop offset="0"/><stop offset="1" stop-opacity="0"/></linearGradient></defs><g stroke-width="104.96"><rect width="14.412" height="3.336" x="3.76" y="18.665" fill="url(#g)" opacity=".4"/><path fill="url(#b)" d="m18.173 18.665v3.3357c1.5371 0.0063 3.716-0.74736 3.716-1.6681 0-0.92072-1.7153-1.6676-3.716-1.6676z" opacity=".4"/><path fill="url(#c)" d="m3.7602 18.665v3.3357c-1.5371 0.0063-3.716-0.74736-3.716-1.6681 0-0.92072 1.7153-1.6676 3.716-1.6676z" opacity=".4"/></g><path fill="url(#i)" stroke="url(#h)" stroke-linecap="round" stroke-linejoin="round" stroke-width="1.011" d="m2.4974 2.5059v2.0159h-1.9629s-0.02395 9.7642-0.02888 14.562c0.02647 0.80424 0.48897 1.3216 0.80973 1.3244h17.415v-15.886h-9.125v-2.0159z"/><path fill="url(#d)" stroke="url(#j)" stroke-linecap="round" stroke-linejoin="round" d="m3.527 6.524c9.6162 0.00005 11.616 0.00005 17.933 0.00005 0 1.3707 0.22391 13.908-0.45166 13.908-0.63816 0-15.737-0.02409-18.496-0.02409 1.3355 0 1.0145-0.5092 1.0145-13.884z"/><path fill="none" stroke="url(#e)" stroke-width=".981" d="m20.969 7.5188s-15.117 0.00294-16.442 0.00294c0 12.39 0.27983 12.786-1.0146 13.392" opacity=".4"/><path fill="url(#f)" fill-rule="evenodd" d="m3.0218 6.0188v7.0671l18.974-2.6268-0.03037-4.4403z" opacity=".2"/></svg>