<svg xmlns="http://www.w3.org/2000/svg" xmlns:xlink="http://www.w3.org/1999/xlink" width="32" height="32" version="1.1"><defs><linearGradient id="k" x1="11.566" x2="15.215" y1="22.292" y2="33.955" gradientTransform="matrix(.65153 0 0 .67605 .36035 .18497)" gradientUnits="userSpaceOnUse" stop-color="#fff"><stop offset="0" stop-opacity=".2"/><stop offset="1" stop-opacity="0"/></linearGradient><radialGradient id="o" cx="7.265" cy="8.302" r="20.98" gradientTransform="matrix(0 .73863 -.99849 0 17.149 6.854)" gradientUnits="userSpaceOnUse" stop-color="#fff"><stop offset="0" stop-opacity=".4"/><stop offset="1" stop-opacity="0"/></radialGradient><linearGradient id="l" x1="22.935" x2="22.809" y1="49.629" y2="36.658" gradientTransform="matrix(.74675 0 0 .65549 -1.9221 1.1676)" gradientUnits="userSpaceOnUse"><stop offset="0" stop-color="#0a0a0a" stop-opacity=".498"/><stop offset="1" stop-color="#0a0a0a" stop-opacity="0"/></linearGradient><radialGradient id="p" cx="63.969" cy="14.113" r="23.097" gradientTransform="matrix(1.008 -6.1246e-8 3.9794e-8 .65396 -55.005 6.1062)" gradientUnits="userSpaceOnUse"><stop offset="0" stop-color="#aacb7d"/><stop offset="1" stop-color="#709937"/></radialGradient><linearGradient id="m" x1="82.453" x2="82.453" y1="45.114" y2="10.826" gradientTransform="matrix(.64421 0 0 .64373 -34.103 .78876)" gradientUnits="userSpaceOnUse"><stop offset="0" stop-color="#51751e"/><stop offset="1" stop-color="#51751e"/></linearGradient><linearGradient id="n" x1="62.989" x2="62.989" y1="13.183" y2="16.19" gradientTransform="matrix(.62791 0 0 .6349 -31.056 1.1034)" gradientUnits="userSpaceOnUse"><stop offset="0" stop-color="#f9f9f9"/><stop offset="1" stop-color="#c9c9c9"/></linearGradient><radialGradient id="q" cx="3" cy="5.017" r="21" gradientTransform="matrix(0,1.0884,-1.3559,0,8.9733,2.9173)" gradientUnits="userSpaceOnUse"><stop offset="0" stop-color="#bdbdbd"/><stop offset="1" stop-color="#d0d0d0"/></radialGradient><radialGradient id="b" cx="605.71" cy="486.65" r="117.14" gradientTransform="matrix(-.019836 0 0 .015916 15.601 21.299)" gradientUnits="userSpaceOnUse"><stop offset="0"/><stop offset="1" stop-opacity="0"/></radialGradient><radialGradient id="a" cx="605.71" cy="486.65" r="117.14" gradientTransform="matrix(.019836 0 0 .015916 16.388 21.299)" gradientUnits="userSpaceOnUse"><stop offset="0"/><stop offset="1" stop-opacity="0"/></radialGradient><linearGradient id="f" x1="302.86" x2="302.86" y1="366.65" y2="609.51" gradientTransform="matrix(.051143 0 0 .015916 -2.49 21.299)" gradientUnits="userSpaceOnUse"><stop offset="0" stop-opacity="0"/><stop offset=".5"/><stop offset="1" stop-opacity="0"/></linearGradient></defs><path fill="url(#n)" stroke="url(#q)" stroke-linecap="round" stroke-linejoin="round" d="m3.5 6.5001v1.9999h-0.9913v8l26.991-3.36v-4.64h-15l0.000005-1.9999z"/><rect width="24.695" height="3.865" x="3.647" y="27.135" fill="url(#f)" opacity=".3"/><path fill="url(#a)" d="m28.342 27.135v3.865c1.0215 0.0073 2.4695-0.86596 2.4695-1.9328s-1.1399-1.9323-2.4695-1.9323z" opacity=".3"/><path fill="url(#b)" d="m3.6472 27.135v3.865c-1.0215 0.0073-2.4695-0.86596-2.4695-1.9328s1.1399-1.9323 2.4695-1.9323z" opacity=".3"/><path fill="url(#p)" stroke="url(#m)" stroke-linecap="round" stroke-linejoin="round" d="m2.1724 29.495h27.658l0.67648-17.995h-28.972z"/><path fill="url(#l)" d="m1.6818 11 28.636 0.000266c0.414 0 0.682 0.292 0.682 0.656l-0.67351 17.712c0.0096 0.45948-0.1364 0.64167-0.61707 0.63203l-27.256-0.012c-0.4137 0-0.83087-0.27117-0.83087-0.63432l-0.6221-17.699c0-0.363 0.2681-0.655 0.6818-0.655z" opacity=".4"/><path fill="none" stroke="url(#o)" stroke-linecap="round" d="m29.969 12.5h-27.399l0.58452 16.495"/><path fill="url(#k)" d="m1.017 11 0.3903 11.014 29.384-4.769 0.235-6.245z"/></svg>