<svg xmlns="http://www.w3.org/2000/svg" xmlns:osb="http://www.openswatchbook.org/uri/2009/osb" xmlns:svg="http://www.w3.org/2000/svg" id="svg7384" width="16.031" height="16" version="1.1" viewBox="0 0 16.031 16"><metadata id="metadata90"/><title id="title9167">Gnome Symbolic Icon Theme</title><defs id="defs7386"><linearGradient id="linearGradient19282" gradientTransform="matrix(-2.7365795,0.28202934,-0.18908311,-0.99988321,239.54008,-879.45557)" osb:paint="solid"><stop id="stop19284" offset="0" style="stop-color:#666;stop-opacity:1"/></linearGradient></defs><g id="layer13" transform="translate(-461.0003,-174.98993)" style="display:inline"><path style="color:#000;font-style:normal;font-variant:normal;font-weight:400;font-stretch:normal;font-size:medium;line-height:normal;font-family:Sans;-inkscape-font-specification:Sans;text-indent:0;text-align:start;text-decoration:none;text-decoration-line:none;letter-spacing:normal;word-spacing:normal;text-transform:none;writing-mode:lr-tb;direction:ltr;baseline-shift:baseline;text-anchor:start;display:inline;overflow:visible;visibility:visible;fill:#bebebe;fill-opacity:1;stroke:none;stroke-width:2;marker:none;enable-background:accumulate" id="path6390-2" d="M 1.03125 1 C 1.03125 1 0.03125 1 0.03125 2 L 0 13.009766 C 2e-05 13.843096 0.57399 14.515506 1.0625 14.759766 C 1.55101 15.004126 2 15.009766 2 15.009766 L 7.03125 15.009766 L 7.03125 7.984375 C 7.03125 7.430385 7.52337 7 8.15625 7 L 16 7 L 16 6.0097656 L 2.96875 6.0097656 L 2.5 13.041016 C 2.4836 13.302816 2.23055 13.526126 1.96875 13.509766 C 1.70695 13.493366 1.48364 13.240316 1.5 12.978516 L 2 5.4785156 C 2.01 5.2557056 2.18713 5.0513756 2.40625 5.0097656 C 2.43745 5.0067656 2.4689 5.0067656 2.5 5.0097656 L 14 5.0097656 L 14.03125 4 C 14.03125 3 13.066406 3.0097656 13.066406 3.0097656 L 8 3.0097656 L 6.03125 1 L 1.03125 1 z" transform="translate(461.0003,174.98993)"/><path id="rect6718-3" d="m 469.9065,182.98993 c -0.49245,0 -0.875,0.38256 -0.875,0.875 l 0,6.25 c 0,0.49244 0.38255,0.875 0.875,0.875 l 6.25,0 c 0.49245,0 0.875,-0.38256 0.875,-0.875 l 0,-6.25 c 0,-0.49244 -0.38255,-0.875 -0.875,-0.875 l -6.25,0 z m 2.125,1 2,0 0,4 -2,0 0,-4 z m 0,5 2,0 0,1 -2,0 0,-1 z" class="warning" style="color:#bebebe;display:inline;overflow:visible;visibility:visible;fill:#f57900;fill-opacity:1;fill-rule:nonzero;stroke:none;stroke-width:2;marker:none"/></g></svg>