<svg xmlns="http://www.w3.org/2000/svg" xmlns:svg="http://www.w3.org/2000/svg" id="svg4" width="16" height="16" version="1.1"><metadata id="metadata10"/><path style="fill:#bebebe;fill-opacity:1" id="path2" d="M 3,1 C 3,1 1,1 1,3 v 11 c 0,1 1,1 1,1 h 12 c 1,0 1,-1 1,-1 V 3 c 0,0 0,-2 -2,-2 z m 0,2 h 1 v 2 h 8 V 3 h 1 V 13 H 3 Z"/><path style="fill:#bebebe;fill-opacity:1" id="path2-3" d="M 8,5.5 C 7.86701,5.5 7.733415,5.54455 7.640625,5.640625 l -2.5,2.5 C 5.062525,8.22017 5.012,8.326575 5,8.4375 V 8.5 9 h 6 V 8.5 8.4375 C 10.988,8.326575 10.937475,8.22017 10.859375,8.140625 l -2.5,-2.5 C 8.266585,5.544565 8.13299,5.5 8,5.5 Z M 5,10 v 2 h 6 v -2 z"/></svg>