<svg xmlns="http://www.w3.org/2000/svg" width="16" height="16" version="1.1"><g fill="#bebebe"><path d="m6 3a2 2 0 1 1 -4 0 2 2 0 1 1 4 0z" transform="matrix(1.25 0 0 1.25 -1 -.25)"/><path d="m6 3a2 2 0 1 1 -4 0 2 2 0 1 1 4 0z" transform="matrix(.75 0 0 .75 10.5 5.25)"/><path d="m6 3a2 2 0 1 1 -4 0 2 2 0 1 1 4 0z" transform="matrix(.75 0 0 .75 6.5 8.25)"/><path d="m6 3a2 2 0 1 1 -4 0 2 2 0 1 1 4 0z" transform="matrix(.75 0 0 .75 10.5 11.25)"/><rect width="10" height="1" x="3" y="7"/><rect width="2" height="10" x="3" y="4"/><rect width="9" height="1" x="4" y="13"/><rect width="5" height="1" x="4" y="10"/></g></svg>