<svg xmlns="http://www.w3.org/2000/svg" xmlns:xlink="http://www.w3.org/1999/xlink" width="16" height="16" version="1.1"><defs><radialGradient id="i" cx="605.71" cy="486.65" r="117.14" gradientTransform="matrix(-2.7744,0,0,1.9697,112.76,-872.89)" gradientUnits="userSpaceOnUse" xlink:href="#a"/><linearGradient id="a"><stop offset="0"/><stop offset="1" stop-opacity="0"/></linearGradient><radialGradient id="h" cx="605.71" cy="486.65" r="117.14" gradientTransform="matrix(2.7744,0,0,1.9697,-1891.6,-872.89)" gradientUnits="userSpaceOnUse" xlink:href="#a"/><linearGradient id="g" x1="302.86" x2="302.86" y1="366.65" y2="609.51" gradientTransform="matrix(2.7744,0,0,1.9697,-1892.2,-872.89)" gradientUnits="userSpaceOnUse"><stop offset="0" stop-opacity="0"/><stop offset=".5"/><stop offset="1" stop-opacity="0"/></linearGradient><linearGradient id="f" x1="18.031" x2="20.055" y1="16.408" y2="24.628" gradientTransform="matrix(.29669 0 0 .35207 1.8925 2.174)" gradientUnits="userSpaceOnUse" stop-color="#fff"><stop offset="0"/><stop offset="1" stop-opacity="0"/></linearGradient><linearGradient id="e" x1="126.7" x2="169.23" y1="58.583" y2="238.4" gradientTransform="matrix(.054893 .013851 .0025726 .052482 -.67283 -.267)" gradientUnits="userSpaceOnUse"><stop offset="0" stop-color="#aacb7d"/><stop offset="1" stop-color="#709937"/></linearGradient><linearGradient id="d" x1="10.318" x2="4.176" y1="14.993" y2="4.051" gradientTransform="matrix(1.0083 0 0 1.0006 .03917 -.007)" gradientUnits="userSpaceOnUse"><stop offset="0" stop-color="#51751e"/><stop offset="1" stop-color="#51751e"/></linearGradient></defs><g><g transform="matrix(.36395 0 0 .34457 -.60471 -.38545) matrix(.021652 0 0 .014857 43.008 42.685)"><rect width="1339.6" height="478.36" x="-1559.3" y="-150.7" fill="url(#g)" opacity=".402"/><path fill="url(#h)" d="m-219.62-150.68v478.33c142.87 0.90045 345.4-107.17 345.4-239.2s-159.44-239.13-345.4-239.13z" opacity=".402"/><path fill="url(#i)" d="m-1559.3-150.68v478.33c-142.87 0.90045-345.4-107.17-345.4-239.2s159.44-239.13 345.4-239.13z" opacity=".402"/></g></g><path fill="#fff" stroke="#a8a8a8" stroke-linecap="round" stroke-linejoin="round" stroke-width=".979" d="m1.5323 1.5092v1.1859h-1.0428l0.00377 3.2103-0.00377 8.5832h13.018v-11.793h-6.0343v-1.1859z"/><path fill="url(#e)" stroke="url(#d)" stroke-linecap="round" stroke-linejoin="round" d="m15.5 4.5554v9.9332h-12.987v-9.9332z"/><path fill="none" stroke="#fff" stroke-width="1" d="m3.513 13.989v-8.4332h11.487" opacity=".35"/><path fill="url(#f)" fill-rule="evenodd" d="m2.013 11.072 13.987-2.6276v-4.389h-13.987z" opacity=".2"/></svg>