<svg xmlns="http://www.w3.org/2000/svg" xmlns:xlink="http://www.w3.org/1999/xlink" width="48" height="48" version="1.1"><defs><linearGradient id="j" x1="11.566" x2="15.215" y1="22.292" y2="33.955" gradientUnits="userSpaceOnUse" stop-color="#fff"><stop offset="0" stop-opacity=".2"/><stop offset="1" stop-opacity="0"/></linearGradient><radialGradient id="k" cx="7.265" cy="8.302" r="20.98" gradientTransform="matrix(0,1.208,-1.6272,0,26.372,8.2665)" gradientUnits="userSpaceOnUse" stop-color="#fff"><stop offset="0" stop-opacity=".4"/><stop offset="1" stop-opacity="0"/></radialGradient><linearGradient id="i" x1="22.935" x2="22.809" y1="49.629" y2="36.658" gradientTransform="matrix(1.1447 0 0 .99775 -3.4661 1.0988)" gradientUnits="userSpaceOnUse"><stop offset="0" stop-color="#0a0a0a" stop-opacity=".498"/><stop offset="1" stop-color="#0a0a0a" stop-opacity="0"/></linearGradient><radialGradient id="d" cx="63.969" cy="14.113" r="23.097" gradientTransform="matrix(1.5647,-9.5143e-8,6.1772e-8,1.0159,-86.213,8.1461)" gradientUnits="userSpaceOnUse"><stop offset="0" stop-color="#aacb7d"/><stop offset="1" stop-color="#709937"/></radialGradient><linearGradient id="h" x1="82.453" x2="82.453" y1="45.114" y2="16.047" gradientTransform="translate(-53.765 -.11419)" gradientUnits="userSpaceOnUse"><stop offset="0" stop-color="#51751e"/><stop offset="1" stop-color="#709937"/></linearGradient><linearGradient id="g" x1="62.989" x2="62.989" y1="13.183" y2="16.19" gradientTransform="translate(-50.941)" gradientUnits="userSpaceOnUse"><stop offset="0" stop-color="#f9f9f9"/><stop offset="1" stop-color="#c9c9c9"/></linearGradient><radialGradient id="c" cx="3" cy="5.017" r="21" gradientTransform="matrix(-1.2749e-8,1.7143,-2.1593,-1.46e-8,12.809,2.857)" gradientUnits="userSpaceOnUse"><stop offset="0" stop-color="#bdbdbd"/><stop offset="1" stop-color="#d0d0d0"/></radialGradient><radialGradient id="b" cx="605.71" cy="486.65" r="117.14" gradientTransform="matrix(-.030791 0 0 .024706 23.39 31.942)" gradientUnits="userSpaceOnUse"><stop offset="0"/><stop offset="1" stop-opacity="0"/></radialGradient><radialGradient id="a" cx="605.71" cy="486.65" r="117.14" gradientTransform="matrix(.030791 0 0 .024706 24.61 31.942)" gradientUnits="userSpaceOnUse"><stop offset="0"/><stop offset="1" stop-opacity="0"/></radialGradient><linearGradient id="f" x1="302.86" x2="302.86" y1="366.65" y2="609.51" gradientTransform="matrix(.079389 0 0 .024706 -4.6933 31.942)" gradientUnits="userSpaceOnUse"><stop offset="0" stop-opacity="0"/><stop offset=".5"/><stop offset="1" stop-opacity="0"/></linearGradient></defs><path fill="url(#g)" stroke="url(#c)" stroke-linecap="round" stroke-linejoin="round" d="m4.5082 8.5002v3.0066h-1.9918l-0.00819 12.744 42.992-5.293v-7.4515h-24v-3.0066z"/><rect width="38.333" height="6" x="4.833" y="41" fill="url(#f)" opacity=".3"/><path fill="url(#a)" d="m43.167 41v5.9997c1.5857 0.01129 3.8333-1.3442 3.8333-3.0002s-1.7695-2.9994-3.8333-2.9994z" opacity=".3"/><path fill="url(#b)" d="m4.8333 41v5.9997c-1.5857 0.011-3.8333-1.344-3.8333-3s1.7695-3 3.8333-3z" opacity=".3"/><path fill="url(#d)" stroke="url(#h)" stroke-linecap="round" stroke-linejoin="round" d="m2.5273 44.48h42.933l1.0738-27.955h-45.034z"/><path fill="url(#i)" d="m2.0582 16.065 43.896 0.000403c0.63416 0 1.0452 0.44461 1.0452 0.99737l-1.032 26.961c0.015 0.7-0.209 0.977-0.945 0.962l-41.781-0.017c-0.63416 0-1.2736-0.41276-1.2736-0.96552l-0.9543-26.939c0-0.55276 0.41099-0.99775 1.0452-0.99775z" opacity=".4"/><path fill="none" stroke="url(#k)" stroke-linecap="round" d="m45.995 17.525h-43.459l0.97248 26.455"/><path fill="url(#j)" d="m0.98126 16.025 0.59804 16.269 45.123-7.122 0.351-9.147z"/></svg>